<svg xmlns="http://www.w3.org/2000/svg" viewBox="0 0 512 512" role="img" aria-label="Golden Cut">
  <rect width="512" height="512" rx="96" fill="#050505"/>
  <rect x="26" y="26" width="460" height="460" rx="78" fill="none" stroke="#fbbf24" stroke-width="16"/>
  <path d="M160 334c-28 0-50 22-50 50s22 50 50 50 50-22 50-50-22-50-50-50Zm0 70c-11 0-20-9-20-20s9-20 20-20 20 9 20 20-9 20-20 20Zm192-70c-28 0-50 22-50 50s22 50 50 50 50-22 50-50-22-50-50-50Zm0 70c-11 0-20-9-20-20s9-20 20-20 20 9 20 20-9 20-20 20Z" fill="#fbbf24"/>
  <path d="M150 112l215 214M362 112 147 326" stroke="#f8fafc" stroke-width="34" stroke-linecap="round"/>
  <path d="M256 58v42M256 412v42M58 256h42M412 256h42" stroke="#fbbf24" stroke-width="14" stroke-linecap="round" opacity=".75"/>
</svg>
